<svg xmlns="http://www.w3.org/2000/svg" width="320" height="320" fill-rule="evenodd" clip-rule="evenodd" image-rendering="optimizeQuality" shape-rendering="geometricPrecision" text-rendering="geometricPrecision" viewBox="0 0 8466.66 8466.66" id="discount"><rect width="8466.66" height="8466.66" fill="none"></rect><polygon fill="#fe4a4b" points="4233.33 326.52 4741.46 752.72 5208.76 449.75 5594.94 988.92 6122.9 811.68 6362.86 1429.96 6918.31 1389.58 6996.97 2048.11 7545.01 2147.13 7457.43 2804.54 7963.64 3036.75 7715.32 3651.71 8147.86 4002.51 7754.41 4536.41 8086.13 4983.76 7572.27 5403.03 7782.31 5918.82 7180.32 6197.12 7255.5 6748.94 6603.21 6868.8 6538.78 7421.98 5877.19 7375.85 5677.22 7895.64 5047.87 7686.42 4724.92 8140.14 4167.38 7780.98 3741.74 8140.14 3291.03 7653.62 2789.44 7895.64 2473.89 7312.31 1927.88 7421.98 1767.3 6778.51 1211.16 6748.94 1215.66 6085.76 684.35 5918.82 853.63 5277.58 380.53 4983.76 703.97 4404.76 318.8 4002.51 776.06 3522.15 503.02 3036.75 1065.38 2685.19 921.65 2147.13 1553.76 1946.48 1548.35 1389.58 2210.52 1352.42 2343.76 811.68 2994.36 940.36 3257.9 449.75 3856.06 736.19"></polygon><text x="1695.33" y="6261.99" fill="#2b97b3" font-family="Arial" font-size="5735.57" font-weight="400">%</text></svg>